<svg xmlns="http://www.w3.org/2000/svg" viewBox="0 0 718.07 484.48"><defs><style>.cls-1{fill:none;stroke:navy;stroke-linecap:round;stroke-linejoin:round;stroke-width:25.13px;}</style></defs><g id="Layer_2" data-name="Layer 2"><g id="Layer_1-2" data-name="Layer 1"><path class="cls-1" d="M14.13,122.72c103.76-12.62,99.63-159.29,204.17-93-39.65,3.91-56.74,30.83-42.22,59.87s58.53,34.41,68.58,33.18"/><path class="cls-1" d="M244.66,122.72c103.65-12.62,99.63-159.29,204.18-93C409.19,33.58,392,60.5,406.62,89.54S465,124,475.08,122.72"/><path class="cls-1" d="M475.08,122.72c103.77-12.62,99.63-159.29,204.18-93C639.61,33.58,622.41,60.5,637,89.54S695.56,124,705.5,122.72"/><path class="cls-1" d="M129.34,290.8C233,278.18,229,131.51,333.51,197.75c-39.65,3.91-56.85,30.83-42.22,59.87S349.82,292,359.76,290.8"/><path class="cls-1" d="M359.76,290.8c103.76-12.62,99.63-159.29,204.18-93.05-39.66,3.91-56.74,30.83-42.22,59.87S580.24,292,590.29,290.8"/><path class="cls-1" d="M12.57,471.76c103.76-12.62,99.63-159.29,204.17-93.05-39.65,3.91-56.74,30.83-42.22,59.87S233.05,473,243.1,471.76"/><path class="cls-1" d="M244.66,471.76c103.65-12.62,99.63-159.29,204.18-93.05-39.65,3.91-56.85,30.83-42.22,59.87S465,473,475.08,471.76"/><path class="cls-1" d="M475.08,471.76c103.77-12.62,99.63-159.29,204.18-93.05-39.65,3.91-56.85,30.83-42.22,59.87S695.56,473,705.5,471.76"/></g></g></svg>