<svg width="70" height="48" viewBox="0 0 70 48" fill="none" xmlns="http://www.w3.org/2000/svg">
<g clip-path="url(#clip0_162_17)">
<path d="M1.37769 11.9629C11.4926 10.7326 11.09 -3.5653 21.2809 2.89689C17.4157 3.27805 15.7497 5.9023 17.1651 8.73323C18.5806 11.5641 22.8709 12.0876 23.8506 11.9677" stroke="#042940" stroke-width="2.44976" stroke-linecap="round" stroke-linejoin="round"/>
<path d="M23.8506 11.9629C33.9548 10.7326 33.5629 -3.5653 43.7548 2.89689C39.8895 3.27317 38.2138 5.89743 39.639 8.72835C41.0642 11.5593 45.3301 12.0876 46.3127 11.9629" stroke="#042940" stroke-width="2.44976" stroke-linecap="round" stroke-linejoin="round"/>
<path d="M46.3127 11.9629C56.4286 10.7326 56.025 -3.5653 66.2169 2.89689C62.3517 3.27317 60.675 5.89743 62.0973 8.72835C63.5196 11.5593 67.8059 12.0876 68.7749 11.9629" stroke="#042940" stroke-width="2.44976" stroke-linecap="round" stroke-linejoin="round"/>
<path d="M12.6089 28.3478C22.714 27.1176 22.3241 12.8197 32.5121 19.277C28.6469 19.6582 26.9702 22.2824 28.3963 25.1133C29.8225 27.9443 34.1021 28.4648 35.071 28.3478" stroke="#042940" stroke-width="2.44976" stroke-linecap="round" stroke-linejoin="round"/>
<path d="M35.0708 28.3478C45.1857 27.1176 44.7831 12.8197 54.975 19.277C51.1088 19.6582 49.4438 22.2824 50.8592 25.1133C52.2747 27.9443 56.564 28.4648 57.5437 28.3478" stroke="#042940" stroke-width="2.44976" stroke-linecap="round" stroke-linejoin="round"/>
<path d="M1.22559 45.9885C11.3405 44.7582 10.9379 30.4603 21.1288 36.9176C17.2636 37.2988 15.5976 39.923 17.013 42.754C18.4285 45.5849 22.7188 46.1093 23.6985 45.9885" stroke="#042940" stroke-width="2.44976" stroke-linecap="round" stroke-linejoin="round"/>
<path d="M23.8506 45.9885C33.9548 44.7582 33.5629 30.4603 43.7548 36.9176C39.8895 37.2988 38.2128 39.923 39.639 42.754C41.0652 45.5849 45.3301 46.1093 46.3127 45.9885" stroke="#042940" stroke-width="2.44976" stroke-linecap="round" stroke-linejoin="round"/>
<path d="M46.3127 45.9885C56.4286 44.7582 56.025 30.4603 66.2169 36.9176C62.3517 37.2988 60.675 39.923 62.1012 42.754C63.5274 45.5849 67.8059 46.1093 68.7749 45.9885" stroke="#042940" stroke-width="2.44976" stroke-linecap="round" stroke-linejoin="round"/>
</g>
<rect x="0.0487418" y="0.0487418" width="69.9025" height="47.1313" stroke="#04D98B" stroke-width="0.0974835"/>
<defs>
<clipPath id="clip0_162_17">
<rect width="70" height="47.2288" fill="white"/>
</clipPath>
</defs>
</svg>
